<svg width="1024" height="1024" viewBox="0 0 1024 1024" fill="none" xmlns="http://www.w3.org/2000/svg">
<g clip-path="url(#clip0_2_21)">
<path d="M363.876 679.749C356.293 679.749 348.712 676.855 342.927 671.072L204.677 532.822C193.108 521.253 193.108 502.495 204.677 490.926L342.927 352.676C354.497 341.108 373.254 341.108 384.823 352.676C396.391 364.245 396.391 383.003 384.823 394.572L267.522 511.874L384.823 629.175C396.391 640.745 396.391 659.501 384.823 671.071C379.038 676.855 371.459 679.749 363.876 679.749Z" fill="white"/>
<path d="M660.623 679.749C668.206 679.749 675.787 676.855 681.571 671.072L819.821 532.822C831.391 521.253 831.391 502.495 819.821 490.926L681.571 352.676C670.002 341.108 651.245 341.108 639.675 352.676C628.108 364.245 628.108 383.003 639.675 394.572L756.977 511.874L639.675 629.175C628.108 640.745 628.108 659.501 639.675 671.071C645.461 676.855 653.04 679.749 660.623 679.749Z" fill="white"/>
<path d="M518.112 399.96C545.504 399.96 566.752 406.36 581.856 419.16C596.96 431.704 604.512 450.392 604.512 475.224V615H559.584L546.912 586.584H545.376C539.488 594.008 533.344 600.152 526.944 605.016C520.8 609.88 513.632 613.336 505.44 615.384C497.504 617.688 487.648 618.84 475.872 618.84C463.584 618.84 452.448 616.408 442.464 611.544C432.736 606.68 425.056 599.256 419.424 589.272C413.792 579.288 410.976 566.616 410.976 551.256C410.976 528.728 418.784 512.088 434.4 501.336C450.272 490.584 473.44 484.568 503.904 483.288L540 482.136V475.992C540 465.752 537.312 458.328 531.936 453.72C526.816 449.112 519.648 446.808 510.432 446.808C501.216 446.808 491.616 448.344 481.632 451.416C471.648 454.232 461.536 457.816 451.296 462.168L431.712 419.16C443.232 413.016 456.288 408.28 470.88 404.952C485.472 401.624 501.216 399.96 518.112 399.96ZM520.416 519.768C504.288 520.28 493.024 523.224 486.624 528.6C480.224 533.72 477.024 540.76 477.024 549.72C477.024 557.656 479.328 563.416 483.936 567C488.544 570.584 494.432 572.376 501.6 572.376C512.352 572.376 521.44 569.176 528.864 562.776C536.288 556.12 540 547.16 540 535.896V519L520.416 519.768Z" fill="white"/>
</g>
<defs>
<clipPath id="clip0_2_21">
<rect width="632" height="632" fill="white" transform="translate(196 196)"/>
</clipPath>
</defs>
</svg>
