<?xml version="1.0" encoding="utf-8"?>
<!-- Generator: Adobe Illustrator 24.0.3, SVG Export Plug-In . SVG Version: 6.00 Build 0)  -->
<svg version="1.1" id="Layer_1" xmlns="http://www.w3.org/2000/svg" xmlns:xlink="http://www.w3.org/1999/xlink" x="0px" y="0px"
	 viewBox="0 0 512 512" style="enable-background:new 0 0 512 512;" xml:space="preserve">
<circle style="fill:#083042;" cx="256" cy="256" r="256"/>
<g>
	<g>
		<path style="fill:#F86734;" d="M416.233,236.621h-10.671c-1.465,0-2.653-1.188-2.653-2.653v-9.848
			c0-1.465,1.188-2.653,2.653-2.653h23.372c1.465,0,2.653,1.188,2.653,2.653v66.896c0,1.465-1.188,2.653-2.653,2.653h-10.048
			c-1.465,0-2.653-1.188-2.653-2.653V236.621z"/>
	</g>
	<g>
		<path style="fill:#F86734;" d="M455.512,236.621H444.84c-1.465,0-2.653-1.188-2.653-2.653v-9.848c0-1.465,1.188-2.653,2.653-2.653
			h23.372c1.465,0,2.653,1.188,2.653,2.653v66.896c0,1.465-1.188,2.653-2.653,2.653h-10.048c-1.465,0-2.653-1.188-2.653-2.653
			V236.621z"/>
	</g>
</g>
<g>
	<circle style="fill:#D6F0FF;" cx="364.119" cy="404.59" r="4.339"/>
	<circle style="fill:#D6F0FF;" cx="275.463" cy="438.373" r="4.842"/>
	<circle style="fill:#D6F0FF;" cx="184.516" cy="424.185" r="5.362"/>
	<circle style="fill:#D6F0FF;" cx="110.417" cy="365.081" r="5.894"/>
	<circle style="fill:#D6F0FF;" cx="75.94" cy="276.596" r="6.435"/>
	<circle style="fill:#D6F0FF;" cx="89.477" cy="185.548" r="6.984"/>
	<circle style="fill:#D6F0FF;" cx="147.972" cy="111.081" r="7.538"/>
	<circle style="fill:#D6F0FF;" cx="236.628" cy="74.799" r="8.096"/>
	<circle style="fill:#D6F0FF;" cx="327.091" cy="86.963" r="8.658"/>
	<circle style="fill:#D6F0FF;" cx="401.052" cy="146.186" r="9.223"/>
</g>
<g>
	<circle style="fill:#3DDB85;" cx="255.449" cy="257.568" r="128.109"/>
	<circle style="fill:#FFFFFF;" cx="339.231" cy="257.568" r="21.476"/>
</g>
</svg>
