<svg
   xmlns:svg="http://www.w3.org/2000/svg"
   xmlns="http://www.w3.org/2000/svg"
   xmlns:sodipodi="http://sodipodi.sourceforge.net/DTD/sodipodi-0.dtd"
   xmlns:inkscape="http://www.inkscape.org/namespaces/inkscape"
   width="512"
   height="508.777"
   viewBox="0 0 135.46667 134.61392"
   version="1.1"
   id="svg5">
  <sodipodi:namedview
     id="namedview25"
     pagecolor="#ffffff"
     bordercolor="#666666"
     borderopacity="1.0"
     inkscape:pageshadow="2"
     inkscape:pageopacity="0.0"
     inkscape:pagecheckerboard="0"
     inkscape:document-units="mm"
     showgrid="false"
     units="px"
     width="512px"
     inkscape:zoom="1"
     inkscape:cx="294.5"
     inkscape:cy="189.5"
     inkscape:window-width="1144"
     inkscape:window-height="699"
     inkscape:window-x="66"
     inkscape:window-y="165"
     inkscape:window-maximized="0"
     inkscape:current-layer="svg5" />
  <defs
     id="defs2" />
  <g
     id="layer1"
     transform="matrix(1.1185693,0,0,1.1185693,-18.839073,-103.70265)"
     style="display:inline">
    <g
       id="g6323"
       style="display:inline">
      <path
         style="display:inline;fill:#3ddc84;fill-opacity:1;stroke-width:0.264583"
         d="m 62.776071,212.7743 c -2.044591,-0.48187 -3.755747,-1.60855 -6.150482,-4.04968 -4.000072,-4.07757 -7.246199,-5.77525 -12.888327,-6.74039 -5.852983,-1.00121 -8.453937,-3.16308 -10.01763,-8.32649 -1.930234,-6.37376 -3.947629,-9.42615 -8.380212,-12.67958 -5.028379,-3.69073 -6.318522,-6.94526 -5.091205,-12.84316 1.136761,-5.46273 0.701463,-9.34654 -1.607242,-14.34011 -2.754593,-5.95799 -2.41455,-9.14161 1.497791,-14.02292 3.586674,-4.47498 4.712409,-7.43292 5.249565,-13.79355 0.542064,-6.41876 2.339206,-9.05215 7.63199,-11.18332 4.417267,-1.77863 8.196106,-4.86624 10.291167,-8.40868 2.42266,-4.09637 2.776363,-4.56595 4.277389,-5.6788 2.422276,-1.795861 4.380759,-2.293565 8.110672,-2.061146 6.479156,0.403731 9.951849,-0.369331 14.302858,-3.183985 5.673048,-3.669876 9.112901,-3.669876 14.785948,0 4.351009,2.814654 7.823703,3.587716 14.302859,3.183985 6.126988,-0.381785 8.676458,1.216537 12.411128,7.780816 1.85082,3.25313 5.63393,6.41916 9.77419,8.17988 5.89708,2.50785 7.61104,4.79679 8.04592,10.74501 0.47097,6.44188 1.80018,10.04362 5.32156,14.41979 3.92084,4.8726 4.26301,8.05921 1.50578,14.02292 -2.30871,4.99357 -2.74401,8.87738 -1.60725,14.34011 1.22732,5.8979 -0.0628,9.15243 -5.0912,12.84316 -4.43258,3.25343 -6.44998,6.30582 -8.38021,12.67958 -1.5637,5.16341 -4.16465,7.32528 -10.01763,8.32649 -5.65408,0.96719 -8.90397,2.67009 -12.88833,6.75336 -4.416954,4.52658 -7.583254,5.27338 -13.758333,3.24498 -5.050559,-1.65901 -8.939124,-1.66609 -13.969576,-0.0254 -3.523773,1.14927 -5.402026,1.34961 -7.66119,0.81716 z"
         id="path2997" />
      <path
         style="display:inline;fill:#ffffff;fill-opacity:1;stroke-width:0.264583"
         d="m 78.521658,185.52892 1.173214,-2.83703 c 29.925718,-2.97312 30.746208,-26.4283 11.855715,-34.68707 l -5.336863,-1.12972 5.057112,-10.24773 4.909957,-9.55393 -8.069791,-0.26598 h -9.072953 v -1.85208 -1.85209 H 90.35996 l 12.96458,0.13362 -5.680919,10.96365 -4.622588,9.7717 0.389359,0.42085 1.447691,0.42086 c 28.332387,6.06098 16.072507,51.06853 -16.336425,40.71495 z M 62.31413,156.44072 v -29.63333 h -7.011458 -7.011458 v -1.85208 -1.85209 h 8.466666 8.466667 v 32.01459 31.48541 H 63.769338 62.31413 Z"
         id="path6329" />
      <path
         style="display:inline;fill:#073042;fill-opacity:1;stroke-width:0.264583"
         d="m 77.013529,189.27848 1.508129,-3.74956 c 15.329442,4.7955 29.651742,-4.86589 29.651742,-20.16937 0,-10.26052 -7.76057,-18.70007 -16.43952,-20.97639 l 5.092484,-10.40019 5.173776,-10.4139 H 90.557652 79.037894 v -2.11952 -2.05052 H 93.921309 108.882 l -5.68748,11.37255 -5.687483,11.37256 c 10.038213,5.05194 14.780303,14.02911 14.780303,23.30123 0,17.83542 -17.744747,30.55186 -35.273811,23.83311 z m -18.932732,-30.5888 v -27.91354 h -4.894792 -4.894791 v -2.11667 -2.11666 h 7.011458 7.011458 v 30.03021 30.0302 h -2.116667 -2.116666 z m 7.14375,-3.57187 V 123.63239 H 56.75788 48.291214 v -2.11666 -2.11667 H 58.874547 69.45788 v 33.60208 33.60208 h -2.116667 -2.116666 z m 14.470325,27.57408 1.470021,-3.97964 c 10.155072,3.47586 19.473427,-3.54931 19.583457,-13.00094 0,-10.35136 -7.982292,-14.52729 -15.244588,-15.03278 l -4.665472,-0.57578 4.742093,-9.76744 4.775764,-9.54866 -5.62048,-0.0714 -5.697773,-0.0714 v -2.05052 -2.05052 h 9.06266 9.139933 l -5.026126,10.04953 -5.026125,10.04954 c 10.698663,1.5643 17.956204,9.07918 17.956204,18.66238 0,12.95816 -12.430244,21.85689 -25.449568,17.38763 z"
         id="path6325" />
    </g>
  </g>
</svg>
