<svg
xmlns="http://www.w3.org/2000/svg"
viewBox="0 0 560 560">
<circle
fill="#9c28b1"
cx="280"
cy="280"
r="280"/>
<circle
fill="#a235b6"
cx="210"
cy="210"
r="120"/>
<path
fill="#ffffff"
d="M264.079987,240.736l0.0,9.82c7.31,-7.15 17.139999,-11.56 28.07,-11.56c22.639999,0.0 40.799999,18.48 40.799999,41.12c0.0,22.48 -18.16,40.880 -40.799999,40.880c-10.93,0.0 -20.280,-4.09 -27.59,-10.93L264.559998,339.0l-11.32,0.0l0.0,-98.269997L264.079987,240.731zM265.809998,264.869995c-0.47,0.79 -1.26,2.04 -1.26,4.79l0.0,21.07c0.0,1.97 0.47,3.07 1.1,4.17c5.19,8.88 14.78,14.94 25.63,14.94c16.43,0.0 29.950,-13.44 29.950,-29.870c0.0,-16.280 -13.52,-29.799999 -29.950,-29.799999C280.51,250.169998 271.0,256.059998 265.809998,264.869995z"/>
<path
fill="#ffffff"
d="M445.731,240.736l0.0,9.82c7.31,-7.15 17.139999,-11.56 28.07,-11.56c22.639999,0.0 40.799999,18.48 40.799999,41.12c0.0,22.48 -18.16,40.880 -40.799999,40.880c-10.93,0.0 -20.280,-4.09 -27.59,-10.93L446.210052,339.0l-11.32,0.0l0.0,-98.269997L445.731,240.731zM447.459991,264.869995c-0.47,0.79 -1.26,2.04 -1.26,4.79l0.0,21.07c0.0,1.97 0.47,3.07 1.1,4.17c5.19,8.88 14.78,14.94 25.63,14.94c16.43,0.0 29.950,-13.44 29.950,-29.870c0.0,-16.280 -13.52,-29.799999 -29.950,-29.799999C462.160004,250.169998 452.649994,256.059998 447.459991,264.869995z"/>
<path
fill="#ffffff"
d="M169.490005,279.880005c0.0,22.639999 -18.32,41.12 -40.810,41.12c-22.639999,0.0 -41.040,-18.48 -41.040,-41.12c0.0,-22.48 18.389999,-40.880 41.040,-40.880C151.169998,239.0 169.490005,257.399994 169.490005,279.880005zM158.089996,280.040009c0.0,-16.43 -13.13,-29.870 -29.41,-29.870c-16.51,0.0 -29.4,13.44 -29.4,29.870c0.0,16.280 12.89,29.799999 29.4,29.799999C144.960007,309.8387 158.089996,296.309998 158.089996,280.040009z"/>
<path
fill="#ffffff"
d="M423.790009,279.880005c0.0,22.639999 -18.32,41.12 -40.810,41.12c-22.639999,0.0 -41.040,-18.48 -41.040,-41.12c0.0,-22.48 18.389999,-40.880 41.040,-40.880C405.470,239.0 423.790009,257.399994 423.790009,279.880005zM412.395,280.040009c0.0,-16.43 -13.13,-29.870 -29.41,-29.870c-16.51,0.0 -29.4,13.44 -29.4,29.870c0.0,16.280 12.89,29.799999 29.4,29.799999C399.26,309.8387 412.395,296.309998 412.395,280.040009z"/>
<path
fill="#ffffff"
d="M229.02,221.0l11.17,0.0l0.0,11.48l-11.17,0.0z"/>
<path
fill="#ffffff"
d="M229.02,240.65l11.17,0.0l0.0,78.62l-11.17,0.0z"/>
<path
fill="#ffffff"
d="M65.4,221.0l11.17,0.0l0.0,98.27l-11.17,0.0z"/>
<path
fill="#ffffff"
d="M180.58,221.0l11.17,0.0l0.0,98.27l-11.17,0.0z"/>
<path
fill="#ffffff"
d="M204.8,221.0l11.17,0.0l0.0,98.27l-11.17,0.0z"/>
</svg>