<?xml version="1.0" encoding="utf-8"?>
<!-- Generator: Adobe Illustrator 23.0.1, SVG Export Plug-In . SVG Version: 6.00 Build 0)  -->
<svg version="1.1"
	 id="svg10" inkscape:version="1.0.2 (e86c870879, 2021-01-15, custom)" sodipodi:docname="Android_Marshmallow_logo.svg" xmlns:cc="http://creativecommons.org/ns#" xmlns:dc="http://purl.org/dc/elements/1.1/" xmlns:inkscape="http://www.inkscape.org/namespaces/inkscape" xmlns:rdf="http://www.w3.org/1999/02/22-rdf-syntax-ns#" xmlns:sodipodi="http://sodipodi.sourceforge.net/DTD/sodipodi-0.dtd" xmlns:svg="http://www.w3.org/2000/svg"
	 xmlns="http://www.w3.org/2000/svg" xmlns:xlink="http://www.w3.org/1999/xlink" x="0px" y="0px" width="708px" height="708px"
	 viewBox="0 0 708 708" enable-background="new 0 0 708 708" xml:space="preserve">
<g>
	<circle fill="#E91E63" cx="354" cy="354" r="354"/>
	<path fill="#F06292" d="M354,354l250.3-250.3C670.7,170,708,260.1,708,354c0,194.2-159.8,354-354,354c-93.9,0-184-37.3-250.3-103.7
		L354,354z"/>
	<path fill="#EE4C83" d="M193.3,513.9L386,706.6c170.5-15.3,306.1-151.3,320.7-322l-192-192L193.3,513.9z"/>
	<g>
		<polygon fill="#EEEEEE" points="193.3,513.9 354,513.9 354,353.3 193.3,192.6 		"/>
		<polygon fill="#FFFFFF" points="514.7,513.9 354,513.9 354,353.3 514.7,192.6 		"/>
		<polygon fill="#DDDDDD" points="514.7,513.9 354,513.9 514.7,353.3 		"/>
		<polygon fill="#DDDDDD" points="193.3,513.9 354,513.9 193.3,353.3 		"/>
	</g>
</g>
</svg>
