<svg xmlns="http://www.w3.org/2000/svg" width="192" height="192" fill="none"><g clip-path="url(#a)"><path stroke="#fff" stroke-width="8" d="m25.612 97.72 17.217-35.87 3.629 68.951-18.608-18.608C25.456 109.719 24 106.25 24 103c0-.402.142-1.238.5-2.394a23.25 23.25 0 0 1 1.112-2.887Z"/><path fill="#EFFAFF" d="m140 51-26-26c-2.27-2.28-7-5-11-5-3.44 0-6.81.69-9 2L46 46zM82 172h63v-27l-47-15-43 15z"/><path fill="#fff" d="M46 127c0 8.02 1.01 9.99 5 14l4 4h90l-44-50-55-49z"/><path stroke="#fff" stroke-width="8" d="m137.165 53.822.007.006L168 84.657V141h-21.343l-91-91H126c2.695 0 4.568.132 6.216.635 1.543.47 3.109 1.339 4.949 3.187Z"/><path fill="#fff" d="M52 142c-4-4.02-5-7.97-5-15V47l-1-1v81c0 7.03 0 8.98 6 15M171 82v62h-27l1 1h27V83z" opacity=".2"/><path fill="#fff" d="M140 51c-4.96-4.96-9.02-5-15-5H46l1 1h78c2.99 0 10.52-.5 15 4" opacity=".2"/><path fill="url(#b)" d="m171 83-31-31-26-26c-2.27-2.28-7-5-11-5-3.44 0-6.81.69-9 2L46 47 22 97c-.86 1.82-2 4.98-2 7 0 4.37 1.92 8.83 5 12l23.96 23.79c.57.7 1.25 1.42 2.04 2.21l1 1 3 3 26 26 1 1h63v-27h27V84z" opacity=".2"/></g><defs><radialGradient id="b" cx="0" cy="0" r="1" gradientTransform="matrix(76 0 0 76 96 97)" gradientUnits="userSpaceOnUse"><stop stop-color="#fff" stop-opacity=".1"/><stop offset="1" stop-color="#fff" stop-opacity="0"/></radialGradient><clipPath id="a"><path fill="#fff" d="M0 0h192v192H0z"/></clipPath></defs></svg>