<svg xmlns="http://www.w3.org/2000/svg" width="192" height="192" fill="none"><path stroke="#fff" stroke-width="4" d="m23.808 96.855 20.606-42.93L48.73 135.9l-22.304-22.304C23.688 110.774 22 106.81 22 103c0-.706.213-1.772.588-2.984a25.197 25.197 0 0 1 1.22-3.162Z"/><path fill="#EFFAFF" d="m140 51-26-26c-2.27-2.28-7-5-11-5-3.44 0-6.81.69-9 2L46 46zM82 172h63v-27l-47-15-43 15z"/><path fill="#fff" d="M46 127c0 8.02 1.01 9.99 5 14l4 4h90l-44-50-55-49z"/><path stroke="#fff" stroke-width="4" d="M170 83.828V143h-24.172l-95-95H126c2.725 0 4.85.127 6.799.722 1.897.578 3.741 1.637 5.784 3.69l.003.002L170 83.828Z"/><path fill="#fff" d="M52 142c-4-4.02-5-7.97-5-15V47l-1-1v81c0 7.03 0 8.98 6 15M171 82v62h-27l1 1h27V83z" opacity=".2"/><path fill="#fff" d="M140 51c-4.96-4.96-9.02-5-15-5H46l1 1h78c2.99 0 10.52-.5 15 4" opacity=".2"/><path fill="url(#a)" d="m171 82-31-31-26-26c-2.27-2.28-7-5-11-5-3.44 0-6.81.69-9 2L46 46 22 96c-.86 1.82-2 4.98-2 7 0 4.37 1.92 8.83 5 12l23.96 23.79c.57.7 1.25 1.42 2.04 2.21l1 1 3 3 26 26 1 1h63v-27h27V83z" opacity=".2"/><defs><radialGradient id="a" cx="0" cy="0" r="1" gradientTransform="matrix(76 0 0 76 96 96)" gradientUnits="userSpaceOnUse"><stop stop-color="#fff" stop-opacity=".1"/><stop offset="1" stop-color="#fff" stop-opacity="0"/></radialGradient></defs></svg>