<svg xmlns="http://www.w3.org/2000/svg" width="256" height="256" fill="none"><path fill="#fff" d="M76.272 115.28c-6.997 0-12.97-1.28-17.92-3.84-4.864-2.56-8.576-6.315-11.136-11.264C44.74 95.141 43.504 89.083 43.504 82V22.608h20.352V79.44c0 4.437.427 7.979 1.28 10.624.939 2.645 2.304 4.565 4.096 5.76 1.877 1.11 4.224 1.664 7.04 1.664 2.901 0 5.29-.597 7.168-1.792 1.877-1.195 3.243-3.115 4.096-5.76.939-2.645 1.408-6.187 1.408-10.624V22.608h20.352v59.008c0 6.912-1.237 12.885-3.712 17.92-2.475 5.035-6.187 8.917-11.136 11.648-4.864 2.731-10.923 4.096-18.176 4.096M178.622 115.28c-6.997 0-12.971-1.28-17.92-3.84-4.864-2.56-8.576-6.315-11.136-11.264-2.475-5.035-3.712-11.093-3.712-18.176V22.608h20.352V79.44c0 4.437.427 7.979 1.28 10.624.939 2.645 2.304 4.565 4.096 5.76 1.877 1.11 4.224 1.664 7.04 1.664 2.901 0 5.291-.597 7.168-1.792 1.877-1.195 3.243-3.115 4.096-5.76.939-2.645 1.408-6.187 1.408-10.624V22.608h20.352v59.008c0 6.912-1.237 12.885-3.712 17.92-2.475 5.035-6.187 8.917-11.136 11.648-4.864 2.731-10.923 4.096-18.176 4.096M48.368 242v-14.336l18.176-2.048v-58.624l-18.176-2.048v-14.336h56.064v14.336L86 166.992v58.624l18.432 2.048V242H48.368M145.854 242v-91.392h27.904c8.363 0 15.531 1.707 21.504 5.12 5.973 3.328 10.581 8.277 13.824 14.848 3.243 6.571 4.864 14.72 4.864 24.448 0 10.155-1.707 18.731-5.12 25.728-3.413 6.997-8.235 12.288-14.464 15.872-6.229 3.584-13.611 5.376-22.144 5.376zm25.984-17.024c7.339 0 12.757-2.432 16.256-7.296 3.499-4.949 5.248-12.331 5.248-22.144 0-6.4-.768-11.648-2.304-15.744-1.451-4.181-3.669-7.253-6.656-9.216-2.987-1.963-6.699-2.944-11.136-2.944h-7.808v57.344z"/></svg>