<svg xmlns="http://www.w3.org/2000/svg" width="630" height="630" fill="none"><path stroke="#F7DF1E" stroke-width="64" d="M8 8h614v614H8z"/><path fill="#F7DF1E" d="m143 496.628 48.213-29.178c9.301 16.491 17.762 30.444 38.057 30.444 19.454 0 31.719-7.61 31.719-37.21v-201.3h59.204v202.137c0 61.32-35.944 89.232-88.385 89.232-47.362 0-74.853-24.529-88.808-54.13m209.35-6.339 48.206-27.911c12.69 20.723 29.183 35.947 58.362 35.947 24.531 0 40.173-12.265 40.173-29.181 0-20.299-16.068-27.489-43.135-39.326l-14.797-6.348c-42.715-18.181-71.05-41.017-71.05-89.227 0-44.404 33.831-78.238 86.695-78.238 37.637 0 64.702 13.111 84.153 47.366l-46.096 29.602c-10.15-18.183-21.142-25.372-38.057-25.372-17.339 0-28.335 10.995-28.335 25.372 0 17.762 10.996 24.952 36.367 35.948l14.8 6.343c50.325 21.569 78.66 43.557 78.66 93.034 0 53.287-41.866 82.465-98.11 82.465-54.976 0-90.5-26.218-107.836-60.474"/></svg>