<svg xmlns="http://www.w3.org/2000/svg" width="160" height="160" fill="none"><g clip-path="url(#a)"><path stroke="#fff" stroke-width="4" d="m80.473 39.559-.025-.01-.025-.008c-5.605-1.91-10.879-2.314-15.639-1.01-4.782 1.31-8.853 4.291-12.114 8.8-6.448 8.919-9.818 23.92-9.697 44.714.18 30.822 6.959 48.052 15.042 57.747 2.344 2.812 4.778 4.965 7.155 6.621C34.264 149.864 2 123.242 2 80.135 2 35.079 39.967 2.099 79.836 2.099c12.207 0 29.263 5.925 43.279 17.303 13.966 11.336 24.709 27.912 24.738 49.114.013 8.996-2.083 19.576-5.812 29.652-3.73 10.08-9.041 19.516-15.352 26.29-6.325 6.789-13.44 10.695-20.846 10.317-6.973-.355-14.77-4.537-22.908-14.933a36.8 36.8 0 0 0 1.62-.921 42.712 42.712 0 0 0 8.452-6.695c6.17-6.303 12.285-16.467 12.285-31.841 0-30.985-24.105-40.561-24.819-40.826Z"/><path fill="#D9D9D9" fill-rule="evenodd" d="M79.823 41.4C56.433 33.34 27.78 52.618 27.78 91.23c0 63.048 46.72 68.77 52.384 68.77C121.057 160 160 126.204 160 79.964 160 28.568 115.36.1 80.164.1c9.748-1.35 52.541 10.55 52.541 69.037 0 38.141-31.953 58.905-52.735 50.033-.478-.177-23.514-9.264-23.514-38.95 0-29.56 23.367-38.818 23.367-38.818" clip-rule="evenodd"/></g><defs><clipPath id="a"><path fill="#fff" d="M0 0h160v160H0z"/></clipPath></defs></svg>